<svg xmlns="http://www.w3.org/2000/svg" viewBox="0 0 20.735 23.98"><path d="M10.34 18.1l-5.327-3.079V8.873L-.004 5.979.001 17.922l10.347 5.967v-5.8z" fill="#da2027"/><path d="M15.68 8.87v6.152l-5.329 3.075v5.792l10.345-5.967.006-11.943z" fill="#a9141a"/><path d="M5.01 8.87l5.33-3.075 5.327 3.078 5.011-2.892L10.338.005-.007 5.973l5.017 2.9z" fill="#c01a21"/><path d="M11.847 8.498l-3.736.422-1.504 3.447 3.738-.418z" fill="#a9141a"/><path d="M12.577 14.968l1.5-3.446-2.233-3.027-1.505 3.449z" fill="#700000"/><path d="M12.587 14.968l-3.737.423-2.236-3.025 3.739-.423z" fill="#da2027"/></svg>